<svg width="51" height="51" viewBox="0 0 51 51" fill="none" xmlns="http://www.w3.org/2000/svg">
<path d="M10 1H40.6377C45.6081 1.0002 49.6377 5.02956 49.6377 10V40.6377C49.6375 45.608 45.608 49.6375 40.6377 49.6377H10C5.02956 49.6377 1.0002 45.6081 1 40.6377V10C1 5.02944 5.02944 1 10 1Z" fill="url(#paint0_linear_1_716)"/>
<path d="M10 1H40.6377C45.6081 1.0002 49.6377 5.02956 49.6377 10V40.6377C49.6375 45.608 45.608 49.6375 40.6377 49.6377H10C5.02956 49.6377 1.0002 45.6081 1 40.6377V10C1 5.02944 5.02944 1 10 1Z" stroke="url(#paint1_linear_1_716)" stroke-width="2"/>
<g clip-path="url(#clip0_1_716)">
<path d="M33.7176 28.7736C33.1252 28.1568 32.4107 27.827 31.6534 27.827C30.9022 27.827 30.1816 28.1507 29.5648 28.7675L27.6349 30.6912C27.4762 30.6057 27.3174 30.5263 27.1647 30.4469C26.9448 30.337 26.7372 30.2332 26.5601 30.1232C24.7524 28.9751 23.1096 27.4789 21.534 25.543C20.7706 24.578 20.2576 23.7658 19.8851 22.9413C20.3859 22.4833 20.85 22.007 21.3019 21.5489C21.4729 21.3779 21.6439 21.2008 21.8149 21.0298C23.0974 19.7474 23.0974 18.0862 21.8149 16.8038L20.1477 15.1365C19.9584 14.9472 19.7629 14.7518 19.5797 14.5564C19.2133 14.1777 18.8286 13.7869 18.4316 13.4204C17.8392 12.8342 17.1308 12.5227 16.3857 12.5227C15.6407 12.5227 14.92 12.8342 14.3093 13.4204C14.3032 13.4265 14.3032 13.4265 14.2971 13.4327L12.2207 15.5274C11.439 16.3091 10.9932 17.2618 10.8955 18.3672C10.7489 20.1504 11.2741 21.8115 11.6772 22.8986C12.6665 25.5674 14.1444 28.0407 16.3491 30.6912C19.024 33.8852 22.2424 36.4074 25.9189 38.1846C27.3235 38.8502 29.1983 39.638 31.2931 39.7724C31.4213 39.7785 31.5557 39.7846 31.6778 39.7846C33.0885 39.7846 34.2733 39.2777 35.2016 38.2701C35.2077 38.2579 35.2199 38.2517 35.226 38.2395C35.5436 37.8548 35.91 37.5067 36.2947 37.1342C36.5573 36.8838 36.8261 36.6212 37.0887 36.3463C37.6933 35.7173 38.0108 34.9845 38.0108 34.2333C38.0108 33.476 37.6872 32.7493 37.0703 32.1386L33.7176 28.7736ZM35.9039 35.2043C35.8978 35.2043 35.8978 35.2104 35.9039 35.2043C35.6657 35.4608 35.4214 35.6929 35.1588 35.9494C34.7619 36.328 34.3588 36.725 33.9802 37.1708C33.3634 37.8304 32.6366 38.1418 31.6839 38.1418C31.5923 38.1418 31.4946 38.1418 31.403 38.1357C29.5892 38.0197 27.9036 37.3113 26.6395 36.7067C23.1829 35.0333 20.1477 32.6577 17.6255 29.6469C15.543 27.1369 14.1506 24.8162 13.2284 22.3245C12.6604 20.8039 12.4528 19.6191 12.5444 18.5015C12.6055 17.787 12.8803 17.1946 13.3872 16.6877L15.4697 14.6052C15.7689 14.3243 16.0865 14.1716 16.398 14.1716C16.7827 14.1716 17.0942 14.4037 17.2896 14.5991C17.2957 14.6052 17.3018 14.6113 17.3079 14.6174C17.6804 14.9655 18.0346 15.3258 18.4072 15.7106C18.5965 15.906 18.7919 16.1014 18.9873 16.303L20.6546 17.9702C21.3019 18.6175 21.3019 19.216 20.6546 19.8634C20.4775 20.0405 20.3065 20.2176 20.1294 20.3886C19.6164 20.9138 19.1278 21.4024 18.5965 21.8787C18.5843 21.8909 18.5721 21.897 18.566 21.9093C18.0407 22.4345 18.1385 22.9475 18.2484 23.2956C18.2545 23.3139 18.2606 23.3322 18.2667 23.3505C18.7003 24.4009 19.311 25.3903 20.2393 26.5689L20.2454 26.575C21.9309 28.6514 23.7081 30.2698 25.6685 31.5096C25.9189 31.6683 26.1754 31.7966 26.4196 31.9187C26.6395 32.0287 26.8471 32.1325 27.0242 32.2424C27.0487 32.2546 27.0731 32.2729 27.0975 32.2851C27.3052 32.389 27.5006 32.4378 27.7021 32.4378C28.209 32.4378 28.5266 32.1203 28.6304 32.0164L30.719 29.9278C30.9266 29.7202 31.2564 29.4698 31.6412 29.4698C32.0198 29.4698 32.3313 29.708 32.5206 29.9156C32.5267 29.9217 32.5267 29.9217 32.5328 29.9278L35.8978 33.2928C36.5268 33.9157 36.5268 34.557 35.9039 35.2043Z" fill="url(#paint2_linear_1_716)"/>
<path d="M26.4865 17.7324C28.0865 18.0011 29.54 18.7584 30.7004 19.9188C31.8607 21.0791 32.6119 22.5326 32.8867 24.1326C32.9539 24.5357 33.302 24.8166 33.6989 24.8166C33.7478 24.8166 33.7905 24.8105 33.8394 24.8044C34.2913 24.7311 34.5906 24.3036 34.5173 23.8517C34.1875 21.9158 33.2714 20.1508 31.8729 18.7523C30.4744 17.3538 28.7095 16.4377 26.7735 16.108C26.3216 16.0347 25.9002 16.3339 25.8208 16.7797C25.7414 17.2256 26.0346 17.6592 26.4865 17.7324Z" fill="url(#paint3_linear_1_716)"/>
<path d="M39.7475 23.6149C39.204 20.4271 37.7016 17.5262 35.3932 15.2177C33.0847 12.9093 30.1838 11.4069 26.996 10.8634C26.5501 10.784 26.1288 11.0894 26.0494 11.5352C25.9761 11.9871 26.2753 12.4085 26.7272 12.4879C29.5731 12.9703 32.1686 14.32 34.2328 16.3781C36.297 18.4423 37.6406 21.0378 38.123 23.8836C38.1902 24.2867 38.5383 24.5676 38.9353 24.5676C38.9841 24.5676 39.0269 24.5615 39.0757 24.5554C39.5215 24.4882 39.8269 24.0608 39.7475 23.6149Z" fill="url(#paint4_linear_1_716)"/>
</g>
<defs>
<linearGradient id="paint0_linear_1_716" x1="-1.88221" y1="46.9728" x2="53.5917" y2="13.7049" gradientUnits="userSpaceOnUse">
<stop stop-color="#DDBFFF"/>
<stop offset="1" stop-color="#EDDDFF"/>
</linearGradient>
<linearGradient id="paint1_linear_1_716" x1="47.9658" y1="50.6373" x2="2.02101" y2="4.25277" gradientUnits="userSpaceOnUse">
<stop stop-color="#755797"/>
<stop offset="1" stop-color="#070F3D"/>
</linearGradient>
<linearGradient id="paint2_linear_1_716" x1="24.4406" y1="39.7846" x2="24.4406" y2="12.5227" gradientUnits="userSpaceOnUse">
<stop stop-color="#000E38"/>
<stop offset="1" stop-color="#3F186A"/>
</linearGradient>
<linearGradient id="paint3_linear_1_716" x1="30.1681" y1="24.8166" x2="30.1681" y2="16.0969" gradientUnits="userSpaceOnUse">
<stop stop-color="#000E38"/>
<stop offset="1" stop-color="#3F186A"/>
</linearGradient>
<linearGradient id="paint4_linear_1_716" x1="32.8992" y1="24.5676" x2="32.8992" y2="10.8508" gradientUnits="userSpaceOnUse">
<stop stop-color="#000E38"/>
<stop offset="1" stop-color="#3F186A"/>
</linearGradient>
<clipPath id="clip0_1_716">
<rect width="28.9356" height="28.9356" fill="white" transform="translate(10.8508 10.8508)"/>
</clipPath>
</defs>
</svg>
