<svg width="52" height="52" viewBox="0 0 52 52" fill="none" xmlns="http://www.w3.org/2000/svg">
<rect x="1" y="1" width="50" height="50" rx="9" fill="url(#paint0_linear_1_733)"/>
<rect x="1" y="1" width="50" height="50" rx="9" stroke="url(#paint1_linear_1_733)" stroke-width="2"/>
<g clip-path="url(#clip0_1_733)">
<path d="M28.0033 40.7985H23.2449C22.4501 40.7985 21.8035 40.152 21.8035 39.3571V28.6242H19.0273C18.2325 28.6242 17.5859 27.9774 17.5859 27.1828V22.5837C17.5859 21.7889 18.2325 21.1423 19.0273 21.1423H21.8035V18.8393C21.8035 16.5557 22.5206 14.6128 23.8769 13.2211C25.2394 11.8231 27.1435 11.0842 29.3833 11.0842L33.0123 11.0901C33.8058 11.0915 34.4512 11.738 34.4512 12.5315V16.8017C34.4512 17.5965 33.8049 18.243 33.0103 18.243L30.5669 18.2439C29.8217 18.2439 29.632 18.3933 29.5914 18.4391C29.5245 18.5151 29.4449 18.7298 29.4449 19.3226V21.1421H32.8267C33.0812 21.1421 33.3279 21.2049 33.5399 21.3232C33.9971 21.5787 34.2814 22.0618 34.2814 22.5839L34.2796 27.183C34.2796 27.9774 33.633 28.6239 32.8382 28.6239H29.4449V39.3571C29.4449 40.152 28.7982 40.7985 28.0033 40.7985ZM23.5455 39.0565H27.7027V27.8443C27.7027 27.3136 28.1346 26.882 28.6651 26.882H32.5376L32.5392 22.8843H28.6649C28.1344 22.8843 27.7027 22.4527 27.7027 21.9219V19.3226C27.7027 18.642 27.7719 17.8681 28.2856 17.2863C28.9063 16.5831 29.8845 16.502 30.5664 16.502L32.7092 16.501V12.8316L29.3819 12.8262C25.7823 12.8262 23.5455 15.1304 23.5455 18.8393V21.9219C23.5455 22.4524 23.1138 22.8843 22.5834 22.8843H19.3279V26.882H22.5834C23.1138 26.882 23.5455 27.3136 23.5455 27.8443V39.0565Z" fill="url(#paint2_linear_1_733)"/>
</g>
<defs>
<linearGradient id="paint0_linear_1_733" x1="-1.93286" y1="48.2368" x2="55.0339" y2="14.0737" gradientUnits="userSpaceOnUse">
<stop stop-color="#DDBFFF"/>
<stop offset="1" stop-color="#EDDDFF"/>
</linearGradient>
<linearGradient id="paint1_linear_1_733" x1="49.2566" y1="52" x2="2.0754" y2="4.36722" gradientUnits="userSpaceOnUse">
<stop stop-color="#755797"/>
<stop offset="1" stop-color="#070F3D"/>
</linearGradient>
<linearGradient id="paint2_linear_1_733" x1="26.0186" y1="40.7985" x2="26.0186" y2="11.0842" gradientUnits="userSpaceOnUse">
<stop stop-color="#000E38"/>
<stop offset="1" stop-color="#3F186A"/>
</linearGradient>
<clipPath id="clip0_1_733">
<rect width="29.6563" height="29.7143" fill="white" transform="translate(11.1719 11.1428)"/>
</clipPath>
</defs>
</svg>
