<svg width="52" height="52" viewBox="0 0 52 52" fill="none" xmlns="http://www.w3.org/2000/svg">
<rect x="1" y="1" width="50" height="50" rx="9" fill="url(#paint0_linear_1_737)"/>
<rect x="1" y="1" width="50" height="50" rx="9" stroke="url(#paint1_linear_1_737)" stroke-width="2"/>
<g clip-path="url(#clip0_1_737)">
<path d="M34.9482 15.0842H17.0517C13.7935 15.0842 11.1428 17.7434 11.1428 21.0113V30.9874C11.1428 34.256 13.7935 36.9145 17.0517 36.9145H34.9482C38.2065 36.9145 40.8571 34.2554 40.8571 30.9874V21.0113C40.8571 17.7434 38.2065 15.0842 34.9482 15.0842ZM39.6443 30.988C39.6443 33.5877 37.5376 35.7023 34.9482 35.7023H17.0517C14.4623 35.7023 12.3557 33.5871 12.3557 30.988V21.0113C12.3557 18.4122 14.4623 16.2971 17.0517 16.2971H34.9482C37.5376 16.2971 39.6443 18.4122 39.6443 21.0113V30.988Z" fill="url(#paint2_linear_1_737)"/>
<path d="M31.3714 25.7796L22.9695 20.8586C22.7828 20.7494 22.5505 20.7476 22.3619 20.8555C22.1733 20.9635 22.0569 21.1642 22.0569 21.3819V31.2234C22.0569 31.4405 22.1733 31.6418 22.3613 31.7498C22.4547 31.8031 22.559 31.8298 22.6633 31.8298C22.7694 31.8298 22.8749 31.8019 22.9695 31.7467L31.3714 26.8269C31.557 26.7184 31.6716 26.5188 31.6716 26.3036C31.6716 26.0883 31.5576 25.8882 31.3714 25.7796ZM23.2697 30.1652V22.4395L29.8651 26.303L23.2697 30.1652Z" fill="url(#paint3_linear_1_737)"/>
</g>
<defs>
<linearGradient id="paint0_linear_1_737" x1="-1.93286" y1="48.2368" x2="55.0339" y2="14.0737" gradientUnits="userSpaceOnUse">
<stop stop-color="#DDBFFF"/>
<stop offset="1" stop-color="#EDDDFF"/>
</linearGradient>
<linearGradient id="paint1_linear_1_737" x1="49.2566" y1="52" x2="2.0754" y2="4.36722" gradientUnits="userSpaceOnUse">
<stop stop-color="#755797"/>
<stop offset="1" stop-color="#070F3D"/>
</linearGradient>
<linearGradient id="paint2_linear_1_737" x1="26" y1="36.9145" x2="26" y2="15.0842" gradientUnits="userSpaceOnUse">
<stop stop-color="#000E38"/>
<stop offset="1" stop-color="#3F186A"/>
</linearGradient>
<linearGradient id="paint3_linear_1_737" x1="26.8642" y1="31.8298" x2="26.8642" y2="20.7756" gradientUnits="userSpaceOnUse">
<stop stop-color="#000E38"/>
<stop offset="1" stop-color="#3F186A"/>
</linearGradient>
<clipPath id="clip0_1_737">
<rect width="29.7143" height="29.7143" fill="white" transform="translate(11.1428 11.1428)"/>
</clipPath>
</defs>
</svg>
